<?xml version="1.0" encoding="UTF-8"?>
<svg xmlns="http://www.w3.org/2000/svg" id="Filled" viewBox="0 0 512 512" width="512" height="512"><path d="M336,24V72h64L289.1,182.9a167.994,167.994,0,1,0,40,40L440,112v56h48V24ZM192,440A120,120,0,1,1,312,320,120.005,120.005,0,0,1,192,440Z" style="fill:#a3d4f7"/><path d="M192,496c97.047,0,176-78.953,176-176a174.715,174.715,0,0,0-28.558-96.129L432,131.313V168a8,8,0,0,0,8,8h48a8,8,0,0,0,8-8V24a8,8,0,0,0-8-8H336a8,8,0,0,0-8,8V72a8,8,0,0,0,8,8h44.687l-92.558,92.557A174.714,174.714,0,0,0,192,144C94.953,144,16,222.953,16,320S94.953,496,192,496Zm0-336a158.818,158.818,0,0,1,92.468,29.423,8,8,0,0,0,10.289-.866l110.9-110.9A8,8,0,0,0,400,64H344V32H480V160H448V112a8,8,0,0,0-13.657-5.657l-110.9,110.9a8,8,0,0,0-.865,10.289A158.825,158.825,0,0,1,352,320c0,88.224-71.775,160-160,160S32,408.224,32,320,103.776,160,192,160Z"/><path d="M192,448A128,128,0,1,0,64,320,128.144,128.144,0,0,0,192,448Zm0-240A112,112,0,1,1,80,320,112.127,112.127,0,0,1,192,208Z"/></svg>
